# xmcd
#
# Track frame offsets: 
#        150
#        28782
#        49662
#        68585
#        88857
#        105575
#        120492
#        142085
#        170557
#        188830
#        205160
#        221737
#        238572
#        259692
#        282805
#        302960
#        324337
#
# Disc length: 4560 seconds
#
# Revision: 1
# Processed by: cddbd v1.5.2PL0 Copyright (c) Steve Scherf et al.
# Submitted via: ExactAudioCopy v0.99pb4
#
DISCID=f711ce11
DTITLE=Booker T. Laury - Blues on The Prowl
DYEAR=1994
DGENRE=Blues
TTITLE0=Introduction Blues
TTITLE1=Next Time You See Me
TTITLE2=Blues With A Feeling
TTITLE3=Bad Luck Blues
TTITLE4=Disco Strut
TTITLE5=Night Time Is The Right Time
TTITLE6=Anais Blues
TTITLE7=Indescribable You
TTITLE8=That's All Right
TTITLE9=Booker's Boogie
TTITLE10=Wee Wee Hours
TTITLE11=Early In The Morning
TTITLE12=Blues On The Prowl
TTITLE13=I Done You Wrong
TTITLE14=My Own Memphis Blues
TTITLE15=I'm Waiting For Jesus
TTITLE16=You Can Go Your Way
EXTD=
EXTT0=
EXTT1=
EXTT2=
EXTT3=
EXTT4=
EXTT5=
EXTT6=
EXTT7=
EXTT8=
EXTT9=
EXTT10=
EXTT11=
EXTT12=
EXTT13=
EXTT14=
EXTT15=
EXTT16=
PLAYORDER=
